<?xml version="1.0" encoding="UTF-8" standalone="no"?>
<!-- Created with Inkscape (http://www.inkscape.org/) -->

<svg
   width="157.6449mm"
   height="146.50038mm"
   viewBox="0 0 157.6449 146.50038"
   version="1.1"
   id="svg5"
   xml:space="preserve"
   inkscape:version="1.2.1 (9c6d41e410, 2022-07-14)"
   sodipodi:docname="404Cloud.svg"
   xmlns:inkscape="http://www.inkscape.org/namespaces/inkscape"
   xmlns:sodipodi="http://sodipodi.sourceforge.net/DTD/sodipodi-0.dtd"
   xmlns="http://www.w3.org/2000/svg"
   xmlns:svg="http://www.w3.org/2000/svg"><sodipodi:namedview
     id="namedview7"
     pagecolor="#ffffff"
     bordercolor="#000000"
     borderopacity="0.25"
     inkscape:showpageshadow="2"
     inkscape:pageopacity="0.0"
     inkscape:pagecheckerboard="0"
     inkscape:deskcolor="#d1d1d1"
     inkscape:document-units="mm"
     showgrid="false"
     inkscape:zoom="0.49510249"
     inkscape:cx="199.9586"
     inkscape:cy="557.46034"
     inkscape:window-width="950"
     inkscape:window-height="993"
     inkscape:window-x="0"
     inkscape:window-y="0"
     inkscape:window-maximized="0"
     inkscape:current-layer="layer1" /><defs
     id="defs2" /><g
     inkscape:label="Layer 1"
     inkscape:groupmode="layer"
     id="layer1"
     transform="translate(-24.27449,-62.32574)"><path
       style="fill:#25a1ea;fill-opacity:1;stroke-width:0.0541353"
       d="m 170.93746,208.75654 c -0.77033,-0.1824 -1.68936,-0.89581 -1.93077,-1.49877 -0.043,-0.10751 -0.0875,-0.14559 -0.14017,-0.12001 -0.27921,0.13568 -0.94817,0.31026 -1.40978,0.36792 -2.13806,0.26702 -4.33694,-1.00937 -5.41224,-3.14166 -0.748,-1.48326 -0.90436,-3.37355 -0.41281,-4.99035 0.68374,-2.24893 2.51817,-3.91219 4.59533,-4.16654 0.73005,-0.2393 0.6479,-1.78267 1.04573,-2.381 0.46519,-0.641 0.62153,-0.82401 0.91406,-1.06997 0.73317,-0.61645 1.47015,-0.9046 2.42676,-0.94883 0.53912,-0.0249 0.71497,-0.0104 1.09457,0.0903 1.09376,0.29021 2.02816,1.00989 2.60334,2.00508 0.25782,0.44608 0.56705,1.20824 0.56705,1.39757 0,0.0831 0.0324,0.0916 0.21839,0.0574 2.21137,-0.40689 4.18513,0.40985 5.54231,2.2934 1.14417,1.58795 1.48015,3.80003 0.87696,5.7738 -0.67338,2.20348 -2.3357,3.7604 -4.42237,4.14197 -0.62132,0.11362 -1.54568,0.0741 -2.15998,-0.0924 -0.23807,-0.0645 -0.44808,-0.0974 -0.46668,-0.073 -0.0186,0.0243 -0.0826,0.17881 -0.14222,0.34324 -0.32272,0.89019 -1.05373,1.63374 -1.89765,1.93019 -0.29592,0.10396 -1.18899,0.15291 -1.48983,0.0817 z m -7.78309,-4.50839 c 0,-1e-5 0,-1e-5 0,-2e-5 z m -19.33815,-1.74446 c -2.93228,-0.46962 -5.28177,-2.56184 -6.24981,-5.56548 -0.0889,-0.27595 -0.167,-0.50172 -0.17348,-0.50172 -0.006,0 -0.22877,0.11395 -0.49397,0.25322 -2.95954,1.55422 -6.65495,1.24196 -9.41878,-0.79588 -1.80375,-1.32995 -3.17924,-3.32416 -3.86757,-5.60729 -1.17439,-3.89532 -0.26399,-8.16748 2.36146,-11.08147 1.76637,-1.96051 4.25191,-3.12921 6.65507,-3.12921 h 0.6183 l 0.28636,-0.66097 c 1.33702,-3.08609 3.79858,-5.20337 6.90355,-5.93799 0.60742,-0.14371 0.74397,-0.15508 1.86301,-0.15508 1.12152,0 1.25515,0.0112 1.87556,0.15698 1.82759,0.42946 3.41726,1.32147 4.68893,2.63108 0.20492,0.21103 0.35743,0.4109 0.33891,0.44415 -0.0187,0.0337 -0.009,0.0439 0.0209,0.023 0.0565,-0.0388 0.55233,0.55524 0.92096,1.10345 0.68789,1.02296 1.27817,2.41019 1.58591,3.72705 l 0.1446,0.61878 0.18362,-0.0323 c 1.07052,-0.18838 2.45148,-0.0185 3.49795,0.43044 0.90995,0.39033 2.12839,1.29707 2.67989,1.99435 0.89817,1.13555 1.44005,2.33798 1.72142,3.81987 0.12539,0.66033 0.12609,2.16657 0.001,2.85987 -0.19183,1.06609 -0.59117,2.12802 -1.12998,3.00488 -0.34203,0.55659 -1.29395,1.61146 -1.76841,1.95963 -1.27522,0.9358 -2.48895,1.35418 -3.94641,1.36035 l -0.72075,0.003 0.02,0.39331 c 0.0277,0.54345 -0.0776,1.59768 -0.22882,2.29062 -0.6101,2.7966 -2.51398,5.09505 -4.97016,6.00024 -0.87806,0.32359 -1.19985,0.3803 -2.26917,0.39988 -0.53698,0.01 -1.04569,0.007 -1.13048,-0.007 z M 107.71817,178.6978 c -4.19864,-0.36122 -7.918436,-1.78674 -11.345156,-4.34778 -2.49219,-1.8626 -4.7134,-4.36435 -6.3662,-7.17026 -0.22105,-0.37526 -0.41346,-0.68118 -0.42759,-0.67982 -0.0141,0.001 -0.19912,0.23535 -0.41108,0.51999 -0.55408,0.74405 -2.22668,2.60091 -2.99841,3.32872 -4.50506,4.24864 -9.66953,6.68536 -15.60301,7.36186 -1.191,0.13579 -4.06309,0.1361 -5.24128,5.7e-4 -5.88069,-0.67649 -10.88822,-3.00425 -15.41554,-7.16595 -0.81702,-0.75103 -2.69724,-2.8383 -3.38921,-3.76241 -2.27825,-3.04258 -3.904835,-6.26054 -5.08249,-10.05497 -1.503195,-4.84331 -1.862747,-10.38383 -1.009322,-15.55309 0.0958,-0.58032 0.169787,-1.05864 0.164407,-1.06295 -0.0054,-0.004 -0.241017,-0.0916 -0.523635,-0.19408 -1.575221,-0.57089 -3.506819,-1.57219 -4.892239,-2.53603 -5.544524,-3.85733 -9.286969,-9.88814 -10.519064,-16.95108 -0.257019,-1.47335 -0.347287,-2.50248 -0.375852,-4.28504 -0.02827,-1.76413 0.01384,-2.63911 0.198148,-4.1172 0.913736,-7.32785 4.718812,-13.903096 10.396746,-17.965796 0.817085,-0.58464 2.136572,-1.3788 2.227437,-1.34062 0.0368,0.0155 0.05475,0.006 0.0399,-0.0204 -0.02661,-0.0478 0.653958,-0.42267 1.306287,-0.71957 1.659005,-0.75509 3.457613,-1.32311 5.138513,-1.62278 1.353309,-0.24128 2.177789,-0.30962 3.725424,-0.30884 1.64904,8.6e-4 2.47298,0.0765 3.96481,0.36388 1.04011,0.303357 0.93161,0.02168 0.96243,-0.80652 0.10056,-2.74924 0.58331,-4.91064 1.62261,-7.26481 1.63546,-3.70456 4.27247,-6.55464 7.68379,-8.30462 1.38639,-0.71122 2.94543,-1.20142 4.62466,-1.45413 0.83678,-0.12593 2.86809,-0.1431 3.69973,-0.0313 3.60288,0.48445 6.75114,2.13461 9.31395,4.88191 0.28463,0.30512 0.49354,0.4884 0.52006,0.45626 0.0244,-0.0296 0.26882,-0.45153 0.5432,-0.93773 1.13666,-2.0142 2.23873,-3.57098 3.72801,-5.26616 2.56535,-2.92004 5.4504,-5.14679 8.79065,-6.784851 0.9613,-0.47142 1.88662,-0.85252 1.9554,-0.80533 0.0346,0.0237 0.0471,0.0173 0.0292,-0.015 -0.0872,-0.15665 2.9682,-1.05583 4.60674,-1.35572 1.841596,-0.33707 2.559156,-0.39943 4.606846,-0.40041 2.69407,-0.001 4.47101,0.23716 6.97566,0.93607 0.93863,0.26192 2.44517,0.78975 2.47075,0.86565 0.009,0.0281 0.0357,0.0384 0.0583,0.0229 0.0226,-0.0155 0.38482,0.12274 0.80493,0.30723 2.91894,1.281781 5.52511,3.031521 7.98343,5.359961 1.4313,1.35567 3.0626,3.30956 4.24809,5.08812 1.07483,1.61255 2.66462,4.59795 2.55415,4.79633 -0.0194,0.0349 -0.0124,0.0477 0.0156,0.0285 0.0581,-0.0399 0.11131,0.0742 0.5666,1.21495 0.77923,1.9524 1.39329,4.13174 1.78939,6.35064 0.0944,0.52859 0.18105,0.9716 0.19264,0.98446 0.0116,0.0129 0.30792,-0.0522 0.65852,-0.14451 0.71146,-0.18741 1.93841,-0.42027 2.79562,-0.53059 0.89584,-0.11529 3.97797,-0.0974 4.90728,0.0285 5.02748,0.68112 9.4691,2.93411 13.07238,6.63089 1.15411,1.18406 1.94226,2.14338 2.8181,3.43011 2.6448,3.885556 4.21119,8.498496 4.56485,13.443236 0.0777,1.08607 0.0324,3.90105 -0.0786,4.88223 -0.59305,5.2451 -2.40307,9.81619 -5.45684,13.78094 -0.9153,1.18834 -2.57202,2.91165 -3.60239,3.74718 -0.14835,0.1203 -0.26974,0.24333 -0.26974,0.2734 0,0.0301 0.11428,0.20708 0.25395,0.39335 0.69322,0.92455 1.42899,2.21998 1.95894,3.449 0.77685,1.80161 1.2305,3.52899 1.46785,5.58919 0.10398,0.90265 0.11707,3.03266 0.024,3.90673 -0.36573,3.43458 -1.44443,6.37765 -3.32369,9.06818 -0.55901,0.80033 -1.80889,2.20342 -2.53921,2.85046 -4.2516,3.76677 -9.89745,4.87817 -15.05584,2.96378 -0.64418,-0.23906 -1.8325,-0.79574 -2.25592,-1.0568 -0.12441,-0.0767 -0.2304,-0.13267 -0.23554,-0.12438 -0.005,0.008 -0.0847,0.25891 -0.17682,0.55691 -0.32283,1.04437 -0.63472,1.86379 -1.1614,3.05124 -0.79399,1.79015 -1.58335,3.1678 -2.72864,4.76222 -0.72364,1.00743 -2.56442,3.05122 -3.46178,3.84356 -3.5846,3.16512 -7.57763,4.99232 -12.10939,5.54122 -0.86081,0.10427 -3.15941,0.15115 -3.97416,0.0811 z"
       id="path179-1"
       sodipodi:nodetypes="sscsssccsscsscsssscssssccccssssssscsssssccsscsssscssccscsccccsscssssssssccsssssccsscccssscsssssccscscscssscscscssssscssssssssssssssssscc"
       inkscape:label="path179-1" /><path
       style="fill:#0c3f5c;fill-opacity:1;stroke-width:0.0541353"
       d="m 171.04561,208.79249 c -0.77033,-0.1824 -1.68936,-0.89581 -1.93077,-1.49877 -0.043,-0.10751 -0.0875,-0.14559 -0.14017,-0.12001 -0.27921,0.13568 -0.94817,0.31026 -1.40978,0.36792 -2.13806,0.26702 -4.33694,-1.00937 -5.41224,-3.14166 -0.748,-1.48326 -0.90436,-3.37355 -0.41281,-4.99035 0.68374,-2.24893 2.51817,-3.91219 4.59533,-4.16654 l 0.3152,-0.0386 0.0352,-0.34984 c 0.0578,-0.57425 0.42063,-1.61406 0.69533,-1.99256 0.46519,-0.641 0.62153,-0.82401 0.91406,-1.06997 0.73317,-0.61645 1.47015,-0.9046 2.42676,-0.94883 0.53912,-0.0249 0.71497,-0.0104 1.09457,0.0903 1.09376,0.29021 2.02816,1.00989 2.60334,2.00508 0.25782,0.44608 0.56705,1.20824 0.56705,1.39757 0,0.0831 0.0324,0.0916 0.21839,0.0574 2.21137,-0.40689 4.18513,0.40985 5.54231,2.2934 1.14417,1.58795 1.48015,3.80003 0.87696,5.7738 -0.67338,2.20348 -2.3357,3.7604 -4.42237,4.14197 -0.62132,0.11362 -1.54568,0.0741 -2.15998,-0.0924 -0.23807,-0.0645 -0.44808,-0.0974 -0.46668,-0.073 -0.0186,0.0243 -0.0826,0.17881 -0.14222,0.34324 -0.32272,0.89019 -1.05373,1.63374 -1.89765,1.93019 -0.29592,0.10396 -1.18899,0.15291 -1.48983,0.0817 z m -7.78309,-4.50839 c -0.0818,-0.63994 -0.0235,-1.69074 0.13036,-2.35235 0.55937,-2.40471 2.36281,-4.19426 4.57767,-4.5424 0.3788,-0.0595 0.43683,-0.10938 0.43805,-0.37625 0.001,-0.2812 0.19877,-0.99679 0.3929,-1.42366 0.78273,-1.72115 2.24814,-2.66958 3.98735,-2.58064 0.33274,0.017 0.59286,0.009 0.57806,-0.0174 -0.0611,-0.1097 -0.66701,-0.47259 -1.03887,-0.62218 -1.09182,-0.43921 -2.23397,-0.31916 -3.27935,0.3447 -0.63048,0.40037 -1.24413,1.1606 -1.54368,1.91236 -0.15062,0.37802 -0.32887,1.07371 -0.32887,1.28358 0,0.14126 -0.0201,0.15547 -0.26977,0.19076 -1.15893,0.1638 -2.38897,0.8763 -3.13389,1.81531 -0.84711,1.06781 -1.28523,2.35397 -1.28591,3.77497 -5.2e-4,0.77974 0.0943,1.35977 0.3297,2.0194 0.15419,0.4321 0.44996,1.056 0.48315,1.01916 0.01,-0.0107 -0.007,-0.21111 -0.0369,-0.44538 z m -19.33815,-1.74446 c -2.93228,-0.46962 -5.28177,-2.56184 -6.24981,-5.56548 -0.0889,-0.27595 -0.167,-0.50172 -0.17348,-0.50172 -0.006,0 -0.22877,0.11395 -0.49397,0.25322 -2.95954,1.55422 -6.65495,1.24196 -9.41878,-0.79588 -1.80375,-1.32995 -3.17924,-3.32416 -3.86757,-5.60729 -1.17439,-3.89532 -0.26399,-8.16748 2.36146,-11.08147 1.76637,-1.96051 4.25191,-3.12921 6.65507,-3.12921 h 0.6183 l 0.28636,-0.66097 c 1.33702,-3.08609 3.79858,-5.20337 6.90355,-5.93799 0.60742,-0.14371 0.74397,-0.15508 1.86301,-0.15508 1.12152,0 1.25515,0.0112 1.87556,0.15698 1.82759,0.42946 3.41726,1.32147 4.68893,2.63108 0.20492,0.21103 0.35743,0.4109 0.33891,0.44415 -0.0187,0.0337 -0.009,0.0439 0.0209,0.023 0.0565,-0.0388 0.55233,0.55524 0.92096,1.10345 0.68789,1.02296 1.27817,2.41019 1.58591,3.72705 l 0.1446,0.61878 0.18362,-0.0323 c 1.07052,-0.18838 2.45148,-0.0185 3.49795,0.43044 0.90995,0.39033 2.12839,1.29707 2.67989,1.99435 0.89817,1.13555 1.44005,2.33798 1.72142,3.81987 0.12539,0.66033 0.12609,2.16657 0.001,2.85987 -0.19183,1.06609 -0.59117,2.12802 -1.12998,3.00488 -0.34203,0.55659 -1.29395,1.61146 -1.76841,1.95963 -1.27522,0.9358 -2.48895,1.35418 -3.94641,1.36035 l -0.72075,0.003 0.02,0.39331 c 0.0277,0.54345 -0.0776,1.59768 -0.22882,2.29062 -0.6101,2.7966 -2.51398,5.09505 -4.97016,6.00024 -0.87806,0.32359 -1.19985,0.3803 -2.26917,0.39988 -0.53698,0.01 -1.04569,0.007 -1.13048,-0.007 z m -18.68209,-16.20087 c 0.9378,-2.03784 2.44016,-3.75151 4.31758,-4.92486 1.49564,-0.93474 3.32535,-1.48091 4.96116,-1.48091 h 0.5719 l 0.11901,-0.32794 c 0.17369,-0.47854 0.59015,-1.34423 0.89857,-1.86782 1.62273,-2.75482 4.2382,-4.67663 7.14587,-5.25067 0.55478,-0.10953 2.09844,-0.18465 2.67141,-0.13 0.22613,0.0216 0.42077,0.0285 0.43252,0.0155 0.0406,-0.0451 -1.05037,-0.58424 -1.53669,-0.75938 -0.97833,-0.35233 -1.76938,-0.48404 -2.85187,-0.47484 -1.87043,0.0159 -3.62509,0.689 -5.18113,1.98758 -1.0961,0.91473 -2.17567,2.43047 -2.66172,3.73709 l -0.16626,0.44697 -0.49164,5.7e-4 c -0.58939,5.7e-4 -1.32867,0.11738 -2.01897,0.31947 -2.94376,0.86179 -5.29037,3.40174 -6.12736,6.6322 -0.2213,0.85414 -0.44785,2.57314 -0.33898,2.57217 0.0159,0 0.1314,-0.22285 0.2566,-0.4949 z m -17.41596,-7.60502 c -4.19864,-0.36122 -7.918436,-1.78674 -11.345156,-4.34778 -2.49219,-1.8626 -4.7134,-4.36435 -6.3662,-7.17026 -0.22105,-0.37526 -0.41346,-0.68118 -0.42759,-0.67982 -0.0141,0.001 -0.19912,0.23535 -0.411085,0.51999 -0.554076,0.74405 -2.226672,2.60091 -2.99841,3.32872 -4.505057,4.24864 -9.669524,6.68536 -15.603005,7.36186 -1.190999,0.13579 -4.063089,0.1361 -5.241283,5.7e-4 -5.880688,-0.67649 -10.888215,-3.00425 -15.415537,-7.16595 -0.817018,-0.75103 -2.697241,-2.8383 -3.389209,-3.76241 -2.278252,-3.04258 -3.904837,-6.26054 -5.082492,-10.05497 -1.503195,-4.84331 -1.862747,-10.38383 -1.009322,-15.55309 0.0958,-0.58032 0.169787,-1.05864 0.164407,-1.06295 -0.0054,-0.004 -0.241017,-0.0916 -0.523635,-0.19408 -1.575221,-0.57089 -3.506819,-1.57219 -4.892239,-2.53603 -5.544524,-3.85732 -9.286969,-9.88813 -10.519064,-16.95107 -0.257019,-1.47335 -0.347287,-2.50248 -0.375852,-4.28504 -0.02827,-1.76413 0.01384,-2.63911 0.198148,-4.1172 0.913736,-7.32785 4.718812,-13.903101 10.396746,-17.965801 0.817085,-0.58464 2.136572,-1.3788 2.227437,-1.34062 0.0368,0.0155 0.05475,0.006 0.0399,-0.0204 -0.02661,-0.0478 0.653958,-0.42267 1.306287,-0.71957 1.659005,-0.75509 3.457613,-1.32311 5.138513,-1.62278 1.353309,-0.24128 2.177789,-0.30962 3.725421,-0.30884 1.649047,8.6e-4 2.472986,0.0765 3.964815,0.36388 0.484937,0.0934 0.89184,0.16987 0.904229,0.16987 0.01239,0 0.0386,-0.43938 0.05824,-0.97639 0.100555,-2.74924 0.583308,-4.91064 1.622608,-7.26481 1.635466,-3.70456 4.272473,-6.55464 7.683793,-8.30462 1.386391,-0.71122 2.945431,-1.20142 4.624661,-1.45413 0.836776,-0.12593 2.868091,-0.1431 3.699729,-0.0313 3.602883,0.48445 6.751137,2.13461 9.313944,4.88191 0.284632,0.30512 0.493549,0.4884 0.520069,0.45626 0.02438,-0.0296 0.268816,-0.45153 0.543192,-0.93773 1.136665,-2.0142 2.238737,-3.57098 3.728011,-5.26616 2.565351,-2.92004 5.450403,-5.14679 8.790653,-6.78485 0.9613,-0.47142 1.88662,-0.85252 1.9554,-0.80533 0.0346,0.0237 0.0471,0.0173 0.0292,-0.015 -0.0872,-0.15665 2.9682,-1.05583 4.60674,-1.35572 1.841596,-0.33707 2.559156,-0.39943 4.606846,-0.40041 2.69407,-0.001 4.47101,0.23716 6.97566,0.93607 0.93863,0.26192 2.44517,0.78975 2.47075,0.86565 0.009,0.0281 0.0357,0.0384 0.0583,0.0229 0.0226,-0.0155 0.38482,0.12274 0.80493,0.30723 2.91894,1.28178 5.52511,3.03152 7.98343,5.35996 1.4313,1.35567 3.0626,3.30956 4.24809,5.08812 1.07483,1.61255 2.66462,4.59795 2.55415,4.79633 -0.0194,0.0349 -0.0124,0.0477 0.0156,0.0285 0.0581,-0.0399 0.11131,0.0742 0.5666,1.21495 0.77923,1.9524 1.39329,4.13174 1.78939,6.35064 0.0944,0.52859 0.18105,0.9716 0.19264,0.98446 0.0116,0.0129 0.30792,-0.0522 0.65852,-0.14451 0.71146,-0.18741 1.93841,-0.42027 2.79562,-0.53059 0.89584,-0.11529 3.97797,-0.0974 4.90728,0.0285 5.02748,0.68112 9.4691,2.93411 13.07238,6.63089 1.15411,1.18406 1.94226,2.14338 2.8181,3.43011 2.6448,3.885561 4.21119,8.498501 4.56485,13.443241 0.0777,1.08607 0.0324,3.90105 -0.0786,4.88223 -0.59305,5.2451 -2.40307,9.81619 -5.45684,13.78094 -0.9153,1.18834 -2.57202,2.91165 -3.60239,3.74718 -0.14835,0.1203 -0.26974,0.24333 -0.26974,0.2734 0,0.0301 0.11428,0.20708 0.25395,0.39335 0.69322,0.92455 1.42899,2.21997 1.95894,3.44899 0.77685,1.80161 1.2305,3.52899 1.46785,5.58919 0.10398,0.90265 0.11707,3.03266 0.024,3.90673 -0.36573,3.43458 -1.44443,6.37765 -3.32369,9.06818 -0.55901,0.80033 -1.80889,2.20342 -2.53921,2.85046 -4.2516,3.76677 -9.89745,4.87817 -15.05584,2.96378 -0.64418,-0.23906 -1.8325,-0.79574 -2.25592,-1.0568 -0.12441,-0.0767 -0.2304,-0.13267 -0.23554,-0.12438 -0.005,0.008 -0.0847,0.25891 -0.17682,0.55691 -0.32283,1.04437 -0.63472,1.86379 -1.1614,3.05124 -0.79399,1.79015 -1.58335,3.1678 -2.72864,4.76222 -0.72364,1.00743 -2.56442,3.05122 -3.46178,3.84356 -3.5846,3.16512 -7.57763,4.99232 -12.10939,5.54122 -0.86081,0.10427 -3.15941,0.15115 -3.97416,0.0811 z M 29.740346,126.95032 c -0.156123,-0.91122 -0.280631,-2.3054 -0.310742,-3.47956 -0.08899,-3.47013 0.477365,-6.7872 1.704271,-9.98166 1.056623,-2.7511 2.564329,-5.20928 4.547729,-7.41468 1.287799,-1.43194 2.725807,-2.67566 4.187888,-3.62206 0.141309,-0.0915 0.349419,-0.22593 0.462466,-0.2988 0.437195,-0.2818 1.981606,-1.09629 2.566153,-1.35332 1.916115,-0.842551 3.956274,-1.366141 6.117933,-1.570101 0.637248,-0.0601 2.780855,-0.0814 3.160185,-0.0314 0.09892,0.0131 0.341711,0.0398 0.539544,0.0594 1.778773,0.17617 3.709867,0.66437 5.417523,1.369591 0.348715,0.144 0.644092,0.25066 0.656394,0.237 0.0123,-0.0136 -0.01927,-0.38021 -0.07016,-0.81456 -0.138904,-1.185591 -0.125822,-3.349221 0.0272,-4.496851 0.282901,-2.12179 0.749596,-3.79512 1.557745,-5.58532 0.558002,-1.23607 1.336481,-2.55246 2.076535,-3.51137 0.235035,-0.30455 1.561979,-1.7844 1.819336,-2.02899 1.916408,-1.82135 4.445266,-3.22043 6.885607,-3.80945 1.364979,-0.32946 2.314694,-0.43335 3.725421,-0.4075 1.148222,0.021 1.985234,0.11825 2.974202,0.34542 0.335766,0.0771 0.622146,0.14023 0.6364,0.14023 0.119373,0 -1.080819,-0.80711 -1.760737,-1.18406 -4.571164,-2.5343 -10.06055,-2.20987 -14.281642,0.84405 -3.086515,2.23307 -5.256272,5.56409 -6.144449,9.43298 -0.347291,1.51282 -0.433022,2.29808 -0.434754,3.98231 -0.0011,1.06221 -0.01749,1.46238 -0.05919,1.44466 -0.15784,-0.0671 -0.830651,-0.27357 -1.381109,-0.42389 -2.952661,-0.80633 -6.258215,-0.88869 -9.197937,-0.22918 -4.641413,1.04129 -8.620559,3.5626 -11.80217,7.478221 -4.966678,6.11251 -6.67311,14.82963 -4.461736,22.7923 0.294176,1.05927 0.842625,2.6279 0.896848,2.56511 0.01014,-0.0118 -0.0145,-0.21358 -0.05476,-0.44852 z"
       id="path179" /></g></svg>
